<svg width="46" height="50" viewBox="0 0 46 50" fill="none" xmlns="http://www.w3.org/2000/svg">
<path d="M24.28 12H9.84C7.54667 12 5.69333 12.6267 4.28 13.88C2.86667 15.1333 2.16 16.7867 2.16 18.84V21.68C2.16 23.0667 2.58666 24.2933 3.44 25.36C4.26667 26.4 5.42667 27.1733 6.92 27.68V27.76C6.06667 28.2667 5.38667 28.92 4.88 29.72C4.34667 30.4933 3.89333 31.5067 3.52 32.76L1.28 40H6.12L8.28 33.08C8.62667 31.88 9.16 30.96 9.88 30.32C10.6 29.68 11.44 29.36 12.4 29.36H19.6V40H24.28V12ZM10.88 25.32C9.65333 25.32 8.68 24.9867 7.96 24.32C7.21333 23.6533 6.84 22.7867 6.84 21.72V18.96C6.84 18.1067 7.12 17.4133 7.68 16.88C8.24 16.3467 8.98667 16.08 9.92 16.08H19.6V25.32H10.88Z" fill="#1B1B1B"/>
<path d="M24.16 40C23.1467 40 22.32 39.6933 21.68 39.08C21.04 38.44 20.72 37.6267 20.72 36.64V12H33.96C36.44 12 38.4267 12.6 39.92 13.8C41.44 14.9733 42.2 16.5333 42.2 18.48V20.52C42.2 21.4533 41.9733 22.3333 41.52 23.16C41.0667 23.9867 40.44 24.6533 39.64 25.16V25.2C40.9467 25.6267 41.9867 26.3467 42.76 27.36C43.56 28.3733 43.96 29.52 43.96 30.8V32.8C43.96 35.0133 43.2 36.7733 41.68 38.08C40.16 39.36 38.1067 40 35.52 40H24.16ZM34.2 23.96C35.1867 23.96 35.9867 23.64 36.6 23C37.2133 22.36 37.52 21.5333 37.52 20.52V18.88C37.52 18.0267 37.1733 17.3467 36.48 16.84C35.8133 16.3333 34.92 16.08 33.8 16.08H25.4V23.96H34.2ZM35.12 35.92C36.4267 35.92 37.44 35.6267 38.16 35.04C38.9067 34.4533 39.28 33.64 39.28 32.6V30.8C39.28 29.8933 38.96 29.1733 38.32 28.64C37.68 28.08 36.8267 27.8 35.76 27.8H25.4V35.92H35.12Z" fill="#1B1B1B"/>
</svg>
