<svg width="53" height="53" viewBox="0 0 53 53" fill="none" xmlns="http://www.w3.org/2000/svg">
<path d="M0 7C0 3.13401 3.13401 0 7 0H46C49.866 0 53 3.13401 53 7V46C53 49.866 49.866 53 46 53H7C3.13401 53 0 49.866 0 46V7Z" fill="#8500D2"/>
<path d="M27.8 13H14.2C12.1467 13 10.5067 13.5867 9.28 14.76C8.02667 15.9067 7.4 17.4267 7.4 19.32V22.24C7.4 23.6533 7.85333 24.9067 8.76 26C9.66667 27.0667 10.88 27.8267 12.4 28.28V28.32C11.6 28.7467 10.88 29.4267 10.24 30.36C9.57333 31.2933 9.06667 32.3467 8.72 33.52L6.52 41H9.56L11.76 33.52C12.1333 32.2133 12.7867 31.16 13.72 30.36C14.6267 29.56 15.6267 29.16 16.72 29.16H24.84V41H27.8V13ZM15.24 26.52C13.7733 26.52 12.6 26.1333 11.72 25.36C10.8133 24.56 10.36 23.52 10.36 22.24V19.16C10.36 18.0933 10.72 17.24 11.44 16.6C12.16 15.96 13.1067 15.64 14.28 15.64H24.84V26.52H15.24Z" fill="white"/>
<path d="M27.8 41C27.0267 41 26.4 40.76 25.92 40.28C25.44 39.8 25.2 39.1733 25.2 38.4V13H37.04C39.4133 13 41.32 13.5733 42.76 14.72C44.2267 15.84 44.96 17.3333 44.96 19.2V21.32C44.96 22.3067 44.7333 23.2533 44.28 24.16C43.8267 25.04 43.2 25.7467 42.4 26.28V26.32C43.7067 26.6667 44.7467 27.3467 45.52 28.36C46.32 29.3467 46.72 30.5067 46.72 31.84V33.76C46.72 35.9467 46.0267 37.7067 44.64 39.04C43.2533 40.3467 41.3733 41 39 41H27.8ZM37.84 25.64C39.0933 25.64 40.0933 25.2533 40.84 24.48C41.6133 23.68 42 22.6267 42 21.32V19.2C42 18.1333 41.5333 17.28 40.6 16.64C39.6933 15.9733 38.5067 15.64 37.04 15.64H28.16V25.64H37.84ZM38.6 38.36C40.2 38.36 41.4533 37.9467 42.36 37.12C43.2933 36.2667 43.76 35.1467 43.76 33.76V31.84C43.76 30.72 43.36 29.8267 42.56 29.16C41.76 28.4667 40.7067 28.12 39.4 28.12H28.16V38.36H38.6Z" fill="white"/>
</svg>
